<svg width="50" height="45" viewBox="0 0 88 86" fill="none" xmlns="http://www.w3.org/2000/svg">
  <rect width="84" height="82" x="2" y="2" rx="23" fill="none" stroke="white" stroke-width="2"/>
  <path d="M62.9865 24.1484C64.6642 23.6476 65.503 23.3976 65.9259 23.8496C66.3487 24.3016 66.0435 25.122 65.4328 26.7627L51.9582 62.9648C51.1719 65.0773 50.778 66.1338 50.0832 66.1338C49.4753 66.1336 49.0981 65.3245 48.4865 63.707L48.2092 62.9648L42.0822 46.5058L53.5422 36.2451C53.9536 35.8766 53.9877 35.2444 53.6193 34.833C53.2509 34.4219 52.6195 34.3868 52.2082 34.7549L40.5842 45.164L21.0031 39.416C20.3874 39.1352 19.0793 38.745 19.0793 38C19.0793 37.2549 20.3874 36.8648 23.0031 36.084L62.9865 24.1484Z"
    fill="none" stroke="white" stroke-width="1"/>
</svg>