<svg width="897" height="119" viewBox="0 0 897 119" fill="none" xmlns="http://www.w3.org/2000/svg">
<path d="M0.68457 41.5039C0.68457 37.0423 1.53678 32.8564 3.24121 28.9463C4.94564 25.0361 7.25163 21.6273 10.1592 18.7197C13.1169 15.762 16.5508 13.431 20.4609 11.7266C24.3711 10.0221 28.557 9.16992 33.0186 9.16992H82.4971V30.751H33.0186C31.5146 30.751 30.111 31.0267 28.8076 31.5781C27.5042 32.1296 26.3512 32.9066 25.3486 33.9092C24.3962 34.8617 23.6442 35.9896 23.0928 37.293C22.5413 38.5964 22.2656 40 22.2656 41.5039C22.2656 43.0078 22.5413 44.4365 23.0928 45.79C23.6442 47.0934 24.3962 48.2464 25.3486 49.249C26.3512 50.2015 27.5042 50.9535 28.8076 51.5049C30.111 52.0563 31.5146 52.332 33.0186 52.332H54.5996C59.0612 52.332 63.2471 53.1842 67.1572 54.8887C71.1175 56.543 74.5514 58.849 77.459 61.8066C80.4167 64.7142 82.7227 68.1481 84.377 72.1084C86.0814 76.0186 86.9336 80.2044 86.9336 84.666C86.9336 89.1276 86.0814 93.3135 84.377 97.2236C82.7227 101.134 80.4167 104.568 77.459 107.525C74.5514 110.433 71.1175 112.739 67.1572 114.443C63.2471 116.148 59.0612 117 54.5996 117H6.7002V95.4189H54.5996C56.1035 95.4189 57.5072 95.1432 58.8105 94.5918C60.1139 94.0404 61.2419 93.2884 62.1943 92.3359C63.1969 91.3333 63.974 90.1803 64.5254 88.877C65.0768 87.5736 65.3525 86.1699 65.3525 84.666C65.3525 83.1621 65.0768 81.7585 64.5254 80.4551C63.974 79.1517 63.1969 78.0238 62.1943 77.0713C61.2419 76.0687 60.1139 75.2917 58.8105 74.7402C57.5072 74.1888 56.1035 73.9131 54.5996 73.9131H33.0186C28.557 73.9131 24.3711 73.0609 20.4609 71.3564C16.5508 69.652 13.1169 67.346 10.1592 64.4385C7.25163 61.4808 4.94564 58.0469 3.24121 54.1367C1.53678 50.1764 0.68457 45.9655 0.68457 41.5039ZM123.178 14.584C123.178 16.4889 122.802 18.2686 122.05 19.9229C121.348 21.5771 120.37 23.0309 119.117 24.2842C117.864 25.4873 116.385 26.4648 114.681 27.2168C113.026 27.9186 111.247 28.2695 109.342 28.2695C107.437 28.2695 105.632 27.9186 103.928 27.2168C102.273 26.4648 100.82 25.4873 99.5664 24.2842C98.3633 23.0309 97.3857 21.5771 96.6338 19.9229C95.932 18.2686 95.5811 16.4889 95.5811 14.584C95.5811 12.7292 95.932 10.9746 96.6338 9.32031C97.3857 7.61589 98.3633 6.16211 99.5664 4.95898C100.82 3.70573 102.273 2.72819 103.928 2.02637C105.632 1.27441 107.437 0.898438 109.342 0.898438C111.247 0.898438 113.026 1.27441 114.681 2.02637C116.385 2.72819 117.864 3.70573 119.117 4.95898C120.37 6.16211 121.348 7.61589 122.05 9.32031C122.802 10.9746 123.178 12.7292 123.178 14.584ZM119.644 117H98.9648V36.4658H119.644V117ZM156.038 117H135.359V4.43262H156.038V117ZM203.787 97.2988C204.589 97.5495 205.391 97.7249 206.193 97.8252C206.995 97.8753 207.798 97.9004 208.6 97.9004C210.605 97.9004 212.535 97.6247 214.39 97.0732C216.244 96.5218 217.974 95.7448 219.578 94.7422C221.232 93.6895 222.686 92.4362 223.939 90.9824C225.243 89.4785 226.296 87.8242 227.098 86.0195L242.137 101.134C240.232 103.841 238.026 106.272 235.52 108.428C233.063 110.583 230.381 112.413 227.474 113.917C224.616 115.421 221.583 116.549 218.375 117.301C215.217 118.103 211.958 118.504 208.6 118.504C202.935 118.504 197.596 117.451 192.583 115.346C187.62 113.24 183.259 110.308 179.499 106.548C175.789 102.788 172.857 98.3265 170.701 93.1631C168.546 87.9495 167.468 82.2347 167.468 76.0186C167.468 69.652 168.546 63.8369 170.701 58.5732C172.857 53.3096 175.789 48.8229 179.499 45.1133C183.259 41.4036 187.62 38.5212 192.583 36.4658C197.596 34.4105 202.935 33.3828 208.6 33.3828C211.958 33.3828 215.242 33.7839 218.45 34.5859C221.659 35.388 224.691 36.541 227.549 38.0449C230.456 39.5488 233.163 41.4036 235.67 43.6094C238.176 45.765 240.382 48.1963 242.287 50.9033L203.787 97.2988ZM214.314 54.9639C213.362 54.613 212.41 54.3874 211.457 54.2871C210.555 54.1868 209.602 54.1367 208.6 54.1367C205.792 54.1367 203.135 54.6631 200.629 55.7158C198.173 56.7184 196.017 58.1722 194.162 60.0771C192.357 61.9821 190.929 64.2881 189.876 66.9951C188.823 69.652 188.297 72.6598 188.297 76.0186C188.297 76.7705 188.322 77.6227 188.372 78.5752C188.472 79.5277 188.598 80.5052 188.748 81.5078C188.949 82.4603 189.174 83.3877 189.425 84.29C189.675 85.1924 190.001 85.9945 190.402 86.6963L214.314 54.9639ZM273.192 117H252.664V36.4658H257.627L264.395 44.2861C267.703 41.2783 271.438 38.9723 275.599 37.3682C279.81 35.7139 284.196 34.8867 288.758 34.8867C293.671 34.8867 298.308 35.8392 302.669 37.7441C307.03 39.599 310.84 42.1807 314.099 45.4893C317.357 48.7477 319.914 52.5827 321.769 56.9941C323.674 61.3555 324.626 66.0176 324.626 70.9805V117H304.098V70.9805C304.098 68.875 303.697 66.8949 302.895 65.04C302.092 63.1351 300.99 61.4808 299.586 60.0771C298.182 58.6735 296.553 57.5706 294.698 56.7686C292.843 55.9665 290.863 55.5654 288.758 55.5654C286.602 55.5654 284.572 55.9665 282.667 56.7686C280.762 57.5706 279.108 58.6735 277.704 60.0771C276.3 61.4808 275.198 63.1351 274.396 65.04C273.593 66.8949 273.192 68.875 273.192 70.9805V117ZM378.616 117C373.653 117 368.991 116.073 364.63 114.218C360.269 112.313 356.434 109.731 353.125 106.473C349.867 103.164 347.285 99.3291 345.38 94.9678C343.525 90.6064 342.598 85.9443 342.598 80.9814V57.0693H332.597V36.6162H342.598V4.43262H363.051V36.6162H394.182V57.0693H363.051V80.9814C363.051 83.137 363.452 85.1673 364.254 87.0723C365.056 88.9271 366.159 90.5563 367.562 91.96C368.966 93.3636 370.62 94.4915 372.525 95.3438C374.43 96.1458 376.461 96.5469 378.616 96.5469H394.182V117H378.616ZM401.626 41.5039C401.626 37.0423 402.478 32.8564 404.183 28.9463C405.887 25.0361 408.193 21.6273 411.101 18.7197C414.058 15.762 417.492 13.431 421.402 11.7266C425.312 10.0221 429.498 9.16992 433.96 9.16992H483.438V30.751H433.96C432.456 30.751 431.052 31.0267 429.749 31.5781C428.446 32.1296 427.293 32.9066 426.29 33.9092C425.338 34.8617 424.586 35.9896 424.034 37.293C423.483 38.5964 423.207 40 423.207 41.5039C423.207 43.0078 423.483 44.4365 424.034 45.79C424.586 47.0934 425.338 48.2464 426.29 49.249C427.293 50.2015 428.446 50.9535 429.749 51.5049C431.052 52.0563 432.456 52.332 433.96 52.332H455.541C460.003 52.332 464.188 53.1842 468.099 54.8887C472.059 56.543 475.493 58.849 478.4 61.8066C481.358 64.7142 483.664 68.1481 485.318 72.1084C487.023 76.0186 487.875 80.2044 487.875 84.666C487.875 89.1276 487.023 93.3135 485.318 97.2236C483.664 101.134 481.358 104.568 478.4 107.525C475.493 110.433 472.059 112.739 468.099 114.443C464.188 116.148 460.003 117 455.541 117H407.642V95.4189H455.541C457.045 95.4189 458.449 95.1432 459.752 94.5918C461.055 94.0404 462.183 93.2884 463.136 92.3359C464.138 91.3333 464.915 90.1803 465.467 88.877C466.018 87.5736 466.294 86.1699 466.294 84.666C466.294 83.1621 466.018 81.7585 465.467 80.4551C464.915 79.1517 464.138 78.0238 463.136 77.0713C462.183 76.0687 461.055 75.2917 459.752 74.7402C458.449 74.1888 457.045 73.9131 455.541 73.9131H433.96C429.498 73.9131 425.312 73.0609 421.402 71.3564C417.492 69.652 414.058 67.346 411.101 64.4385C408.193 61.4808 405.887 58.0469 404.183 54.1367C402.478 50.1764 401.626 45.9655 401.626 41.5039ZM531.939 97.2988C532.742 97.5495 533.544 97.7249 534.346 97.8252C535.148 97.8753 535.95 97.9004 536.752 97.9004C538.757 97.9004 540.687 97.6247 542.542 97.0732C544.397 96.5218 546.126 95.7448 547.73 94.7422C549.385 93.6895 550.839 92.4362 552.092 90.9824C553.395 89.4785 554.448 87.8242 555.25 86.0195L570.289 101.134C568.384 103.841 566.178 106.272 563.672 108.428C561.215 110.583 558.534 112.413 555.626 113.917C552.769 115.421 549.736 116.549 546.527 117.301C543.369 118.103 540.111 118.504 536.752 118.504C531.087 118.504 525.748 117.451 520.735 115.346C515.772 113.24 511.411 110.308 507.651 106.548C503.942 102.788 501.009 98.3265 498.854 93.1631C496.698 87.9495 495.62 82.2347 495.62 76.0186C495.62 69.652 496.698 63.8369 498.854 58.5732C501.009 53.3096 503.942 48.8229 507.651 45.1133C511.411 41.4036 515.772 38.5212 520.735 36.4658C525.748 34.4105 531.087 33.3828 536.752 33.3828C540.111 33.3828 543.394 33.7839 546.603 34.5859C549.811 35.388 552.844 36.541 555.701 38.0449C558.609 39.5488 561.316 41.4036 563.822 43.6094C566.329 45.765 568.535 48.1963 570.439 50.9033L531.939 97.2988ZM542.467 54.9639C541.514 54.613 540.562 54.3874 539.609 54.2871C538.707 54.1868 537.755 54.1367 536.752 54.1367C533.945 54.1367 531.288 54.6631 528.781 55.7158C526.325 56.7184 524.169 58.1722 522.314 60.0771C520.51 61.9821 519.081 64.2881 518.028 66.9951C516.976 69.652 516.449 72.6598 516.449 76.0186C516.449 76.7705 516.474 77.6227 516.524 78.5752C516.625 79.5277 516.75 80.5052 516.9 81.5078C517.101 82.4603 517.326 83.3877 517.577 84.29C517.828 85.1924 518.154 85.9945 518.555 86.6963L542.467 54.9639ZM601.345 117H580.816V36.4658H585.779L592.547 44.2861C595.855 41.2783 599.59 38.9723 603.751 37.3682C607.962 35.7139 612.348 34.8867 616.91 34.8867C621.823 34.8867 626.46 35.8392 630.821 37.7441C635.183 39.599 638.993 42.1807 642.251 45.4893C645.509 48.7477 648.066 52.5827 649.921 56.9941C651.826 61.3555 652.778 66.0176 652.778 70.9805V117H632.25V70.9805C632.25 68.875 631.849 66.8949 631.047 65.04C630.245 63.1351 629.142 61.4808 627.738 60.0771C626.335 58.6735 624.705 57.5706 622.851 56.7686C620.996 55.9665 619.016 55.5654 616.91 55.5654C614.755 55.5654 612.724 55.9665 610.819 56.7686C608.914 57.5706 607.26 58.6735 605.856 60.0771C604.453 61.4808 603.35 63.1351 602.548 65.04C601.746 66.8949 601.345 68.875 601.345 70.9805V117ZM745.269 117H740.306L732.335 105.946C730.38 107.701 728.299 109.355 726.094 110.909C723.938 112.413 721.657 113.742 719.251 114.895C716.845 115.997 714.363 116.875 711.807 117.526C709.3 118.178 706.743 118.504 704.137 118.504C698.472 118.504 693.133 117.451 688.12 115.346C683.157 113.19 678.796 110.232 675.036 106.473C671.326 102.663 668.394 98.1761 666.238 93.0127C664.083 87.7992 663.005 82.1344 663.005 76.0186C663.005 69.9528 664.083 64.3132 666.238 59.0996C668.394 53.8861 671.326 49.3743 675.036 45.5645C678.796 41.7546 683.157 38.7718 688.12 36.6162C693.133 34.4606 698.472 33.3828 704.137 33.3828C705.941 33.3828 707.796 33.5332 709.701 33.834C711.656 34.1348 713.536 34.6361 715.341 35.3379C717.196 35.9896 718.925 36.8669 720.529 37.9697C722.133 39.0726 723.487 40.4261 724.59 42.0303V4.43262H745.269V117ZM724.59 76.0186C724.59 73.2113 724.038 70.5042 722.936 67.8975C721.883 65.2406 720.429 62.9095 718.574 60.9043C716.719 58.849 714.539 57.2197 712.032 56.0166C709.576 54.7633 706.944 54.1367 704.137 54.1367C701.329 54.1367 698.673 54.638 696.166 55.6406C693.71 56.6432 691.554 58.097 689.699 60.002C687.895 61.8568 686.466 64.1377 685.413 66.8447C684.36 69.5518 683.834 72.6097 683.834 76.0186C683.834 78.9762 684.36 81.7835 685.413 84.4404C686.466 87.0973 687.895 89.4284 689.699 91.4336C691.554 93.4388 693.71 95.0179 696.166 96.1709C698.673 97.3239 701.329 97.9004 704.137 97.9004C706.944 97.9004 709.576 97.2988 712.032 96.0957C714.539 94.8424 716.719 93.2132 718.574 91.208C720.429 89.1527 721.883 86.8216 722.936 84.2148C724.038 81.5579 724.59 78.8258 724.59 76.0186ZM793.018 97.2988C793.82 97.5495 794.622 97.7249 795.424 97.8252C796.226 97.8753 797.028 97.9004 797.83 97.9004C799.835 97.9004 801.765 97.6247 803.62 97.0732C805.475 96.5218 807.204 95.7448 808.809 94.7422C810.463 93.6895 811.917 92.4362 813.17 90.9824C814.473 89.4785 815.526 87.8242 816.328 86.0195L831.367 101.134C829.462 103.841 827.257 106.272 824.75 108.428C822.294 110.583 819.612 112.413 816.704 113.917C813.847 115.421 810.814 116.549 807.605 117.301C804.447 118.103 801.189 118.504 797.83 118.504C792.165 118.504 786.826 117.451 781.813 115.346C776.851 113.24 772.489 110.308 768.729 106.548C765.02 102.788 762.087 98.3265 759.932 93.1631C757.776 87.9495 756.698 82.2347 756.698 76.0186C756.698 69.652 757.776 63.8369 759.932 58.5732C762.087 53.3096 765.02 48.8229 768.729 45.1133C772.489 41.4036 776.851 38.5212 781.813 36.4658C786.826 34.4105 792.165 33.3828 797.83 33.3828C801.189 33.3828 804.472 33.7839 807.681 34.5859C810.889 35.388 813.922 36.541 816.779 38.0449C819.687 39.5488 822.394 41.4036 824.9 43.6094C827.407 45.765 829.613 48.1963 831.518 50.9033L793.018 97.2988ZM803.545 54.9639C802.592 54.613 801.64 54.3874 800.688 54.2871C799.785 54.1868 798.833 54.1367 797.83 54.1367C795.023 54.1367 792.366 54.6631 789.859 55.7158C787.403 56.7184 785.247 58.1722 783.393 60.0771C781.588 61.9821 780.159 64.2881 779.106 66.9951C778.054 69.652 777.527 72.6598 777.527 76.0186C777.527 76.7705 777.552 77.6227 777.603 78.5752C777.703 79.5277 777.828 80.5052 777.979 81.5078C778.179 82.4603 778.405 83.3877 778.655 84.29C778.906 85.1924 779.232 85.9945 779.633 86.6963L803.545 54.9639ZM862.423 117H841.895V36.4658H846.857L853.625 46.0156C856.934 43.0078 860.693 40.7018 864.904 39.0977C869.115 37.4434 873.477 36.6162 877.988 36.6162H896.11V57.0693H877.988C875.833 57.0693 873.802 57.4704 871.897 58.2725C869.993 59.0745 868.338 60.1774 866.935 61.5811C865.531 62.9847 864.428 64.639 863.626 66.5439C862.824 68.4489 862.423 70.4792 862.423 72.6348V117Z" fill="rgb(229, 231, 235)"/>
</svg>
