<svg width="745" height="99" viewBox="0 0 745 99" fill="none" xmlns="http://www.w3.org/2000/svg">
<path d="M0.0625 34.25C0.0625 30.5417 0.770833 27.0625 2.1875 23.8125C3.60417 20.5625 5.52083 17.7292 7.9375 15.3125C10.3958 12.8542 13.25 10.9167 16.5 9.5C19.75 8.08333 23.2292 7.375 26.9375 7.375H68.0625V25.3125H26.9375C25.6875 25.3125 24.5208 25.5417 23.4375 26C22.3542 26.4583 21.3958 27.1042 20.5625 27.9375C19.7708 28.7292 19.1458 29.6667 18.6875 30.75C18.2292 31.8333 18 33 18 34.25C18 35.5 18.2292 36.6875 18.6875 37.8125C19.1458 38.8958 19.7708 39.8542 20.5625 40.6875C21.3958 41.4792 22.3542 42.1042 23.4375 42.5625C24.5208 43.0208 25.6875 43.25 26.9375 43.25H44.875C48.5833 43.25 52.0625 43.9583 55.3125 45.375C58.6042 46.75 61.4583 48.6667 63.875 51.125C66.3333 53.5417 68.25 56.3958 69.625 59.6875C71.0417 62.9375 71.75 66.4167 71.75 70.125C71.75 73.8333 71.0417 77.3125 69.625 80.5625C68.25 83.8125 66.3333 86.6667 63.875 89.125C61.4583 91.5417 58.6042 93.4583 55.3125 94.875C52.0625 96.2917 48.5833 97 44.875 97H5.0625V79.0625H44.875C46.125 79.0625 47.2917 78.8333 48.375 78.375C49.4583 77.9167 50.3958 77.2917 51.1875 76.5C52.0208 75.6667 52.6667 74.7083 53.125 73.625C53.5833 72.5417 53.8125 71.375 53.8125 70.125C53.8125 68.875 53.5833 67.7083 53.125 66.625C52.6667 65.5417 52.0208 64.6042 51.1875 63.8125C50.3958 62.9792 49.4583 62.3333 48.375 61.875C47.2917 61.4167 46.125 61.1875 44.875 61.1875H26.9375C23.2292 61.1875 19.75 60.4792 16.5 59.0625C13.25 57.6458 10.3958 55.7292 7.9375 53.3125C5.52083 50.8542 3.60417 48 2.1875 44.75C0.770833 41.4583 0.0625 37.9583 0.0625 34.25ZM101.875 11.875C101.875 13.4583 101.562 14.9375 100.938 16.3125C100.354 17.6875 99.5417 18.8958 98.5 19.9375C97.4583 20.9375 96.2292 21.75 94.8125 22.375C93.4375 22.9583 91.9583 23.25 90.375 23.25C88.7917 23.25 87.2917 22.9583 85.875 22.375C84.5 21.75 83.2917 20.9375 82.25 19.9375C81.25 18.8958 80.4375 17.6875 79.8125 16.3125C79.2292 14.9375 78.9375 13.4583 78.9375 11.875C78.9375 10.3333 79.2292 8.875 79.8125 7.5C80.4375 6.08333 81.25 4.875 82.25 3.875C83.2917 2.83333 84.5 2.02083 85.875 1.4375C87.2917 0.8125 88.7917 0.5 90.375 0.5C91.9583 0.5 93.4375 0.8125 94.8125 1.4375C96.2292 2.02083 97.4583 2.83333 98.5 3.875C99.5417 4.875 100.354 6.08333 100.938 7.5C101.562 8.875 101.875 10.3333 101.875 11.875ZM98.9375 97H81.75V30.0625H98.9375V97ZM129.188 97H112V3.4375H129.188V97ZM168.875 80.625C169.542 80.8333 170.208 80.9792 170.875 81.0625C171.542 81.1042 172.208 81.125 172.875 81.125C174.542 81.125 176.146 80.8958 177.688 80.4375C179.229 79.9792 180.667 79.3333 182 78.5C183.375 77.625 184.583 76.5833 185.625 75.375C186.708 74.125 187.583 72.75 188.25 71.25L200.75 83.8125C199.167 86.0625 197.333 88.0833 195.25 89.875C193.208 91.6667 190.979 93.1875 188.562 94.4375C186.188 95.6875 183.667 96.625 181 97.25C178.375 97.9167 175.667 98.25 172.875 98.25C168.167 98.25 163.729 97.375 159.562 95.625C155.438 93.875 151.812 91.4375 148.688 88.3125C145.604 85.1875 143.167 81.4792 141.375 77.1875C139.583 72.8542 138.688 68.1042 138.688 62.9375C138.688 57.6458 139.583 52.8125 141.375 48.4375C143.167 44.0625 145.604 40.3333 148.688 37.25C151.812 34.1667 155.438 31.7708 159.562 30.0625C163.729 28.3542 168.167 27.5 172.875 27.5C175.667 27.5 178.396 27.8333 181.062 28.5C183.729 29.1667 186.25 30.125 188.625 31.375C191.042 32.625 193.292 34.1667 195.375 36C197.458 37.7917 199.292 39.8125 200.875 42.0625L168.875 80.625ZM177.625 45.4375C176.833 45.1458 176.042 44.9583 175.25 44.875C174.5 44.7917 173.708 44.75 172.875 44.75C170.542 44.75 168.333 45.1875 166.25 46.0625C164.208 46.8958 162.417 48.1042 160.875 49.6875C159.375 51.2708 158.188 53.1875 157.312 55.4375C156.438 57.6458 156 60.1458 156 62.9375C156 63.5625 156.021 64.2708 156.062 65.0625C156.146 65.8542 156.25 66.6667 156.375 67.5C156.542 68.2917 156.729 69.0625 156.938 69.8125C157.146 70.5625 157.417 71.2292 157.75 71.8125L177.625 45.4375ZM226.562 97H209.5V30.0625H213.625L219.25 36.5625C222 34.0625 225.104 32.1458 228.562 30.8125C232.062 29.4375 235.708 28.75 239.5 28.75C243.583 28.75 247.438 29.5417 251.062 31.125C254.688 32.6667 257.854 34.8125 260.562 37.5625C263.271 40.2708 265.396 43.4583 266.938 47.125C268.521 50.75 269.312 54.625 269.312 58.75V97H252.25V58.75C252.25 57 251.917 55.3542 251.25 53.8125C250.583 52.2292 249.667 50.8542 248.5 49.6875C247.333 48.5208 245.979 47.6042 244.438 46.9375C242.896 46.2708 241.25 45.9375 239.5 45.9375C237.708 45.9375 236.021 46.2708 234.438 46.9375C232.854 47.6042 231.479 48.5208 230.312 49.6875C229.146 50.8542 228.229 52.2292 227.562 53.8125C226.896 55.3542 226.562 57 226.562 58.75V97ZM314.188 97C310.062 97 306.188 96.2292 302.562 94.6875C298.938 93.1042 295.75 90.9583 293 88.25C290.292 85.5 288.146 82.3125 286.562 78.6875C285.021 75.0625 284.25 71.1875 284.25 67.0625V47.1875H275.938V30.1875H284.25V3.4375H301.25V30.1875H327.125V47.1875H301.25V67.0625C301.25 68.8542 301.583 70.5417 302.25 72.125C302.917 73.6667 303.833 75.0208 305 76.1875C306.167 77.3542 307.542 78.2917 309.125 79C310.708 79.6667 312.396 80 314.188 80H327.125V97H314.188ZM333.312 34.25C333.312 30.5417 334.021 27.0625 335.438 23.8125C336.854 20.5625 338.771 17.7292 341.188 15.3125C343.646 12.8542 346.5 10.9167 349.75 9.5C353 8.08333 356.479 7.375 360.188 7.375H401.312V25.3125H360.188C358.938 25.3125 357.771 25.5417 356.688 26C355.604 26.4583 354.646 27.1042 353.812 27.9375C353.021 28.7292 352.396 29.6667 351.938 30.75C351.479 31.8333 351.25 33 351.25 34.25C351.25 35.5 351.479 36.6875 351.938 37.8125C352.396 38.8958 353.021 39.8542 353.812 40.6875C354.646 41.4792 355.604 42.1042 356.688 42.5625C357.771 43.0208 358.938 43.25 360.188 43.25H378.125C381.833 43.25 385.312 43.9583 388.562 45.375C391.854 46.75 394.708 48.6667 397.125 51.125C399.583 53.5417 401.5 56.3958 402.875 59.6875C404.292 62.9375 405 66.4167 405 70.125C405 73.8333 404.292 77.3125 402.875 80.5625C401.5 83.8125 399.583 86.6667 397.125 89.125C394.708 91.5417 391.854 93.4583 388.562 94.875C385.312 96.2917 381.833 97 378.125 97H338.312V79.0625H378.125C379.375 79.0625 380.542 78.8333 381.625 78.375C382.708 77.9167 383.646 77.2917 384.438 76.5C385.271 75.6667 385.917 74.7083 386.375 73.625C386.833 72.5417 387.062 71.375 387.062 70.125C387.062 68.875 386.833 67.7083 386.375 66.625C385.917 65.5417 385.271 64.6042 384.438 63.8125C383.646 62.9792 382.708 62.3333 381.625 61.875C380.542 61.4167 379.375 61.1875 378.125 61.1875H360.188C356.479 61.1875 353 60.4792 349.75 59.0625C346.5 57.6458 343.646 55.7292 341.188 53.3125C338.771 50.8542 336.854 48 335.438 44.75C334.021 41.4583 333.312 37.9583 333.312 34.25ZM441.625 80.625C442.292 80.8333 442.958 80.9792 443.625 81.0625C444.292 81.1042 444.958 81.125 445.625 81.125C447.292 81.125 448.896 80.8958 450.438 80.4375C451.979 79.9792 453.417 79.3333 454.75 78.5C456.125 77.625 457.333 76.5833 458.375 75.375C459.458 74.125 460.333 72.75 461 71.25L473.5 83.8125C471.917 86.0625 470.083 88.0833 468 89.875C465.958 91.6667 463.729 93.1875 461.312 94.4375C458.938 95.6875 456.417 96.625 453.75 97.25C451.125 97.9167 448.417 98.25 445.625 98.25C440.917 98.25 436.479 97.375 432.312 95.625C428.188 93.875 424.562 91.4375 421.438 88.3125C418.354 85.1875 415.917 81.4792 414.125 77.1875C412.333 72.8542 411.438 68.1042 411.438 62.9375C411.438 57.6458 412.333 52.8125 414.125 48.4375C415.917 44.0625 418.354 40.3333 421.438 37.25C424.562 34.1667 428.188 31.7708 432.312 30.0625C436.479 28.3542 440.917 27.5 445.625 27.5C448.417 27.5 451.146 27.8333 453.812 28.5C456.479 29.1667 459 30.125 461.375 31.375C463.792 32.625 466.042 34.1667 468.125 36C470.208 37.7917 472.042 39.8125 473.625 42.0625L441.625 80.625ZM450.375 45.4375C449.583 45.1458 448.792 44.9583 448 44.875C447.25 44.7917 446.458 44.75 445.625 44.75C443.292 44.75 441.083 45.1875 439 46.0625C436.958 46.8958 435.167 48.1042 433.625 49.6875C432.125 51.2708 430.938 53.1875 430.062 55.4375C429.188 57.6458 428.75 60.1458 428.75 62.9375C428.75 63.5625 428.771 64.2708 428.812 65.0625C428.896 65.8542 429 66.6667 429.125 67.5C429.292 68.2917 429.479 69.0625 429.688 69.8125C429.896 70.5625 430.167 71.2292 430.5 71.8125L450.375 45.4375ZM499.312 97H482.25V30.0625H486.375L492 36.5625C494.75 34.0625 497.854 32.1458 501.312 30.8125C504.812 29.4375 508.458 28.75 512.25 28.75C516.333 28.75 520.188 29.5417 523.812 31.125C527.438 32.6667 530.604 34.8125 533.312 37.5625C536.021 40.2708 538.146 43.4583 539.688 47.125C541.271 50.75 542.062 54.625 542.062 58.75V97H525V58.75C525 57 524.667 55.3542 524 53.8125C523.333 52.2292 522.417 50.8542 521.25 49.6875C520.083 48.5208 518.729 47.6042 517.188 46.9375C515.646 46.2708 514 45.9375 512.25 45.9375C510.458 45.9375 508.771 46.2708 507.188 46.9375C505.604 47.6042 504.229 48.5208 503.062 49.6875C501.896 50.8542 500.979 52.2292 500.312 53.8125C499.646 55.3542 499.312 57 499.312 58.75V97ZM618.938 97H614.812L608.188 87.8125C606.562 89.2708 604.833 90.6458 603 91.9375C601.208 93.1875 599.312 94.2917 597.312 95.25C595.312 96.1667 593.25 96.8958 591.125 97.4375C589.042 97.9792 586.917 98.25 584.75 98.25C580.042 98.25 575.604 97.375 571.438 95.625C567.312 93.8333 563.688 91.375 560.562 88.25C557.479 85.0833 555.042 81.3542 553.25 77.0625C551.458 72.7292 550.562 68.0208 550.562 62.9375C550.562 57.8958 551.458 53.2083 553.25 48.875C555.042 44.5417 557.479 40.7917 560.562 37.625C563.688 34.4583 567.312 31.9792 571.438 30.1875C575.604 28.3958 580.042 27.5 584.75 27.5C586.25 27.5 587.792 27.625 589.375 27.875C591 28.125 592.562 28.5417 594.062 29.125C595.604 29.6667 597.042 30.3958 598.375 31.3125C599.708 32.2292 600.833 33.3542 601.75 34.6875V3.4375H618.938V97ZM601.75 62.9375C601.75 60.6042 601.292 58.3542 600.375 56.1875C599.5 53.9792 598.292 52.0417 596.75 50.375C595.208 48.6667 593.396 47.3125 591.312 46.3125C589.271 45.2708 587.083 44.75 584.75 44.75C582.417 44.75 580.208 45.1667 578.125 46C576.083 46.8333 574.292 48.0417 572.75 49.625C571.25 51.1667 570.062 53.0625 569.188 55.3125C568.312 57.5625 567.875 60.1042 567.875 62.9375C567.875 65.3958 568.312 67.7292 569.188 69.9375C570.062 72.1458 571.25 74.0833 572.75 75.75C574.292 77.4167 576.083 78.7292 578.125 79.6875C580.208 80.6458 582.417 81.125 584.75 81.125C587.083 81.125 589.271 80.625 591.312 79.625C593.396 78.5833 595.208 77.2292 596.75 75.5625C598.292 73.8542 599.5 71.9167 600.375 69.75C601.292 67.5417 601.75 65.2708 601.75 62.9375ZM658.625 80.625C659.292 80.8333 659.958 80.9792 660.625 81.0625C661.292 81.1042 661.958 81.125 662.625 81.125C664.292 81.125 665.896 80.8958 667.438 80.4375C668.979 79.9792 670.417 79.3333 671.75 78.5C673.125 77.625 674.333 76.5833 675.375 75.375C676.458 74.125 677.333 72.75 678 71.25L690.5 83.8125C688.917 86.0625 687.083 88.0833 685 89.875C682.958 91.6667 680.729 93.1875 678.312 94.4375C675.938 95.6875 673.417 96.625 670.75 97.25C668.125 97.9167 665.417 98.25 662.625 98.25C657.917 98.25 653.479 97.375 649.312 95.625C645.188 93.875 641.562 91.4375 638.438 88.3125C635.354 85.1875 632.917 81.4792 631.125 77.1875C629.333 72.8542 628.438 68.1042 628.438 62.9375C628.438 57.6458 629.333 52.8125 631.125 48.4375C632.917 44.0625 635.354 40.3333 638.438 37.25C641.562 34.1667 645.188 31.7708 649.312 30.0625C653.479 28.3542 657.917 27.5 662.625 27.5C665.417 27.5 668.146 27.8333 670.812 28.5C673.479 29.1667 676 30.125 678.375 31.375C680.792 32.625 683.042 34.1667 685.125 36C687.208 37.7917 689.042 39.8125 690.625 42.0625L658.625 80.625ZM667.375 45.4375C666.583 45.1458 665.792 44.9583 665 44.875C664.25 44.7917 663.458 44.75 662.625 44.75C660.292 44.75 658.083 45.1875 656 46.0625C653.958 46.8958 652.167 48.1042 650.625 49.6875C649.125 51.2708 647.938 53.1875 647.062 55.4375C646.188 57.6458 645.75 60.1458 645.75 62.9375C645.75 63.5625 645.771 64.2708 645.812 65.0625C645.896 65.8542 646 66.6667 646.125 67.5C646.292 68.2917 646.479 69.0625 646.688 69.8125C646.896 70.5625 647.167 71.2292 647.5 71.8125L667.375 45.4375ZM716.312 97H699.25V30.0625H703.375L709 38C711.75 35.5 714.875 33.5833 718.375 32.25C721.875 30.875 725.5 30.1875 729.25 30.1875H744.312V47.1875H729.25C727.458 47.1875 725.771 47.5208 724.188 48.1875C722.604 48.8542 721.229 49.7708 720.062 50.9375C718.896 52.1042 717.979 53.4792 717.312 55.0625C716.646 56.6458 716.312 58.3333 716.312 60.125V97Z" fill="rgb(229, 231, 235)"/>
</svg>
